<svg width="38" height="38" fill="none" xmlns="http://www.w3.org/2000/svg"><path fill-rule="evenodd" clip-rule="evenodd" d="M19 38c10.493 0 19-8.507 19-19S29.493 0 19 0 0 8.507 0 19s8.507 19 19 19Z" fill="#000"/><path d="M14.807 21.33c.684 0 1.404.294 2.196.918.971.77 1.62 1.137 1.979 1.137.54 0 .792-.293.792-.844 0-.293-.144-.55-.468-.77-.18-.11-1.08-.477-2.771-1.065-2.736-.99-4.103-2.789-4.103-5.467 0-2.019.72-3.597 2.16-4.734C15.886 9.514 17.433 9 19.305 9c1.62 0 3.023.404 4.21 1.174 1.188.771 1.8 1.799 1.8 3.046 0 .734-.216 1.358-.684 1.872-.468.513-1.043.734-1.763.734-.756 0-1.584-.367-2.52-1.101-.575-.44-1.007-.697-1.295-.697-.504 0-.756.256-.756.733 0 .478.612.918 1.872 1.285 1.727.55 3.023 1.21 3.958 2.018 1.26 1.064 1.872 2.532 1.872 4.44 0 2.092-.684 3.707-2.087 4.881C22.617 28.486 20.925 29 18.838 29s-3.815-.55-5.183-1.688C12.575 26.394 12 25.367 12 24.156c0-.807.252-1.468.792-2.018.576-.514 1.223-.808 2.015-.808Z" fill="#fff"/></svg>