<svg width="320" height="320" fill="none" xmlns="http://www.w3.org/2000/svg"><path opacity=".2" fill-rule="evenodd" clip-rule="evenodd" d="M319.996 159.628c0 3.732-.128 7.433-.38 11.101V320H.379V170.709a161.602 161.602 0 0 1 0-22.162V.379h148.506a162.736 162.736 0 0 1 22.226 0h148.505v148.149c.252 3.668.38 7.369.38 11.1Zm-1.88-78.124v53.572a158.298 158.298 0 0 0-18.559-53.572h18.559Zm0 67.077a156.928 156.928 0 0 0-20.283-67.077h-57.367v77.746h77.65v-10.669Zm0-68.955h-19.634c-13.956-23.995-33.997-44.028-58.015-57.999V1.88h77.649v77.747Zm-21.372 0a159.105 159.105 0 0 0-56.277-56.26v56.26h56.277ZM238.587 1.879v18.672a159.175 159.175 0 0 0-53.963-18.672h53.963Zm0 20.397C218.435 10.775 195.51 3.56 171.059 1.879h-10.122v77.747h77.65v-57.35ZM81.408 1.879h53.965a159.171 159.171 0 0 0-53.965 18.673V1.879Zm67.529 0c-24.451 1.682-47.377 8.896-67.529 20.397v57.35h77.65V1.879h-10.121Zm-69.409 0v19.75C55.511 35.598 35.47 55.631 21.515 79.624H1.879V1.879h77.65Zm0 21.488a159.103 159.103 0 0 0-56.275 56.258h56.275V23.367ZM1.88 81.504h18.56a158.305 158.305 0 0 0-18.56 53.581V81.504Zm0 79.625v9.528a156.918 156.918 0 0 0 20.931 68.218H79.53v-77.746H1.879Zm0 77.746v-54.703a158.322 158.322 0 0 0 19.198 54.703H1.88Zm0 1.879h20.294a160.62 160.62 0 0 0 57.356 56.875V318.5H1.879v-77.746ZM81.41 318.5v-19.795a159.235 159.235 0 0 0 62.91 19.795h-62.91Zm0-21.52c22.909 13.076 49.403 20.61 77.649 20.774v-77h-77.65v56.226Zm157.178 21.52h-62.909a159.249 159.249 0 0 0 62.909-19.794V318.5Zm-77.649-.746c28.245-.163 54.74-7.698 77.649-20.773v-56.227h-77.649v77Zm79.528.746v-20.871a160.61 160.61 0 0 0 57.357-56.875h20.293V318.5h-77.65Zm0-22.609a159.12 159.12 0 0 0 55.61-55.137h-55.61v55.137Zm0-57.016h56.72a156.913 156.913 0 0 0 20.93-68.199v-9.547h-77.65v77.746Zm77.65-54.695a158.324 158.324 0 0 1-19.197 54.695h19.197V184.18ZM23.92 240.754A159.105 159.105 0 0 0 79.53 295.89v-55.136H23.92Zm-1.756-159.25A156.91 156.91 0 0 0 1.879 148.6v10.65h77.65V81.504H22.164Zm59.244 0h77.65v5.119H99.081v72.627H81.408V81.504Zm17.673 79.625H81.408v77.746h77.65v-77.746h-34.031v72.059H99.081v-72.059Zm25.946-1.879h34.031v-46.696h-34.031v46.696Zm35.911-72.627H224.3v72.627h14.287V81.504h-77.649v5.119Zm63.362 74.506h14.287v77.746h-77.649v-77.746h37.415v72.059H224.3v-72.059Zm-25.947-1.879v-46.696h-37.415v46.696h37.415Z" fill="#4A4A4A"/></svg>